<svg width="46" height="47" viewBox="0 0 46 47" fill="none" xmlns="http://www.w3.org/2000/svg">
<rect x="0.5" y="0.5" width="45" height="46" rx="22.5" fill="white"/>
<rect x="0.5" y="0.5" width="45" height="46" rx="22.5" stroke="black"/>
<path d="M12.5 22.75C12.0858 22.75 11.75 23.0858 11.75 23.5C11.75 23.9142 12.0858 24.25 12.5 24.25V22.75ZM33.5 23.5L34.0375 24.023C34.3208 23.7319 34.3208 23.2681 34.0375 22.977L33.5 23.5ZM23.9625 32.227C23.6736 32.5239 23.6801 32.9987 23.977 33.2875C24.2739 33.5764 24.7487 33.5699 25.0375 33.273L23.9625 32.227ZM25.0375 13.727C24.7487 13.4301 24.2739 13.4236 23.977 13.7125C23.6801 14.0013 23.6736 14.4761 23.9625 14.773L25.0375 13.727ZM12.5 24.25H33.5V22.75H12.5V24.25ZM25.0375 33.273L34.0375 24.023L32.9625 22.977L23.9625 32.227L25.0375 33.273ZM23.9625 14.773L32.9625 24.023L34.0375 22.977L25.0375 13.727L23.9625 14.773Z" fill="#16141C"/>
</svg>
