<svg width="207" height="45" viewBox="0 0 207 45" fill="none" xmlns="http://www.w3.org/2000/svg">
<mask id="mask0_102_300" style="mask-type:luminance" maskUnits="userSpaceOnUse" x="0" y="0" width="61" height="45">
<path d="M20.7764 26.75C21.9468 24.7274 20.4849 22.1937 18.1484 22.1937H14.1034C11.9329 22.1937 9.92832 23.3507 8.84307 25.2297L0.412173 39.8313C-0.758286 41.8538 0.703673 44.3876 3.04011 44.3876H45.5264C47.6969 44.3876 49.7015 43.2305 50.7867 41.3515L60.0921 25.2342C61.1774 23.3552 61.1774 21.0412 60.0921 19.1622L50.7867 3.04481C50.2441 2.10307 49.4728 1.34517 48.5624 0.820485C47.6521 0.295797 46.6117 0.00878906 45.5264 0.00878906H3.04011C0.703673 0.00878906 -0.758286 2.53806 0.412173 4.56506C2.20598 7.63247 3.50201 11.1124 7.69503 11.108H39.118C41.2885 11.108 43.2931 9.95096 44.3784 8.07195C40.6428 14.4355 51.0154 18.8796 47.2799 25.2432C45.1721 28.5079 43.8671 33.3557 39.118 33.3018H20.5073C18.3368 33.3018 16.3322 34.4588 15.247 36.3379" fill="white"/>
</mask>
<g mask="url(#mask0_102_300)">
<path d="M200.955 -35.3336H7.54709C-0.779672 -35.3336 -7.52985 -28.5834 -7.52985 -20.2567V76.0662C-7.52985 84.393 -0.779672 91.1432 7.54709 91.1432H200.955C209.282 91.1432 216.032 84.393 216.032 76.0662V-20.2567C216.032 -28.5834 209.282 -35.3336 200.955 -35.3336Z" fill="url(#paint0_linear_102_300)" stroke="white" stroke-width="1.15" stroke-miterlimit="10"/>
</g>
<mask id="mask1_102_300" style="mask-type:luminance" maskUnits="userSpaceOnUse" x="64" y="0" width="68" height="45">
<path d="M130.477 34.0509L112.054 2.27813C111.646 1.57406 111.068 1.00452 110.386 0.609887C109.704 0.21525 108.924 0 108.108 0H90.4209C88.793 0 87.2907 0.86999 86.4745 2.27813L64.7919 39.8315C63.6259 41.8585 65.0834 44.3877 67.4198 44.3877H72.3438C73.9717 44.3877 75.474 43.5177 76.2902 42.1096L80.0662 35.5712C80.8778 34.163 82.3847 33.293 84.0125 33.293H114.512C116.14 33.293 117.642 34.163 118.458 35.5712L122.754 42.872C123.925 44.899 126.844 44.899 128.015 42.872L130.477 38.6072C131.293 37.1991 131.293 35.4591 130.477 34.0509ZM108.108 22.1939H90.4209C88.793 22.1939 87.2907 23.0639 86.4745 24.472L92.8829 13.3773C93.6946 11.9692 95.2014 11.0992 96.8293 11.0992H101.704C103.332 11.0992 104.834 10.2292 105.65 8.82105C104.834 10.2292 104.834 11.9647 105.65 13.3773L112.054 24.472C111.243 23.0639 109.736 22.1939 108.108 22.1939Z" fill="white"/>
</mask>
<g mask="url(#mask1_102_300)">
<path d="M200.955 -35.3336H7.54709C-0.779672 -35.3336 -7.52985 -28.5834 -7.52985 -20.2567V76.0662C-7.52985 84.393 -0.779672 91.1432 7.54709 91.1432H200.955C209.282 91.1432 216.032 84.393 216.032 76.0662V-20.2567C216.032 -28.5834 209.282 -35.3336 200.955 -35.3336Z" fill="url(#paint1_linear_102_300)" stroke="white" stroke-width="1.15" stroke-miterlimit="10"/>
</g>
<mask id="mask2_102_300" style="mask-type:luminance" maskUnits="userSpaceOnUse" x="137" y="0" width="71" height="45">
<path d="M206.592 39.8315L184.91 2.27813C184.502 1.57406 183.923 1.00452 183.242 0.609888C182.56 0.21525 181.78 0 180.963 0H163.276C161.649 0 160.146 0.86999 159.33 2.27813L137.647 39.8315C136.482 41.8585 137.939 44.3877 140.275 44.3877H145.199C146.827 44.3877 148.33 43.5177 149.146 42.1096L152.922 35.5712C153.733 34.163 155.24 33.293 156.868 33.293H187.367C188.995 33.293 190.498 34.163 191.314 35.5712L195.61 42.872C196.265 44.0066 197.484 44.3922 198.61 44.3922C199.736 44.3922 203.96 44.3922 203.96 44.3922C206.296 44.3922 207.758 41.8629 206.588 39.8359L206.592 39.8315ZM180.968 22.1939H163.281C161.653 22.1939 160.151 23.0594 159.335 24.472L165.743 13.3773C166.555 11.9692 168.061 11.0992 169.689 11.0992H174.564C176.192 11.0992 177.694 10.2292 178.51 8.82105C177.694 10.2292 177.694 11.9647 178.51 13.3773L184.914 24.472C184.103 23.0639 182.596 22.1939 180.968 22.1939Z" fill="white"/>
</mask>
<g mask="url(#mask2_102_300)">
<path d="M200.955 -35.3336H7.54721C-0.77955 -35.3336 -7.52972 -28.5834 -7.52972 -20.2567V76.0662C-7.52972 84.393 -0.77955 91.1432 7.54721 91.1432H200.955C209.282 91.1432 216.032 84.393 216.032 76.0662V-20.2567C216.032 -28.5834 209.282 -35.3336 200.955 -35.3336Z" fill="url(#paint2_linear_102_300)" stroke="white" stroke-width="1.15" stroke-miterlimit="10"/>
</g>
<defs>
<linearGradient id="paint0_linear_102_300" x1="39.0777" y1="-61.8012" x2="169.429" y2="117.611" gradientUnits="userSpaceOnUse">
<stop stop-color="#413FD1"/>
<stop offset="0.14" stop-color="#4A37D5"/>
<stop offset="0.33" stop-color="#5E29E0"/>
<stop offset="0.99" stop-color="#72B8FC"/>
</linearGradient>
<linearGradient id="paint1_linear_102_300" x1="39.0777" y1="-61.8012" x2="169.429" y2="117.611" gradientUnits="userSpaceOnUse">
<stop stop-color="#413FD1"/>
<stop offset="0.14" stop-color="#4A37D5"/>
<stop offset="0.33" stop-color="#5E29E0"/>
<stop offset="0.99" stop-color="#72B8FC"/>
</linearGradient>
<linearGradient id="paint2_linear_102_300" x1="39.0778" y1="-61.8012" x2="169.429" y2="117.611" gradientUnits="userSpaceOnUse">
<stop stop-color="#413FD1"/>
<stop offset="0.14" stop-color="#4A37D5"/>
<stop offset="0.33" stop-color="#5E29E0"/>
<stop offset="0.99" stop-color="#72B8FC"/>
</linearGradient>
</defs>
</svg>
