<svg width="257" height="65" viewBox="0 0 257 65" fill="none" xmlns="http://www.w3.org/2000/svg">
<path fill-rule="evenodd" clip-rule="evenodd" d="M27.3529 13.1748C29.9637 20.1478 25.8217 26.2617 21.4044 31.5383L14.3873 39.0731C7.09478 48.2603 9.01151 55.1342 15.3236 63.6715C15.621 64.0791 15.7202 64.3655 15.4448 63.6275C14.6186 61.4023 12.151 51.7964 25.2159 40.7916C35.5157 32.1111 33.9514 22.4942 30.5806 17.5591C28.8731 15.0695 27.3639 13.1858 27.3529 13.1858" fill="#E2000F"/>
<path fill-rule="evenodd" clip-rule="evenodd" d="M17.6591 0C20.2588 6.97304 16.1168 13.0758 11.7105 18.3414L4.69339 25.8763C-2.522 34.9644 -0.759458 41.8382 5.51958 50.3315C5.97123 50.9373 6.00427 51.1797 5.68481 50.2323C4.80354 47.6877 2.80969 38.3132 15.511 27.5947C25.8108 18.9032 24.2465 9.28636 20.8757 4.36227C19.2564 2.00488 17.8133 0.165238 17.6591 0Z" fill="#00953F"/>
<path fill-rule="evenodd" clip-rule="evenodd" d="M139.979 64.2447V41.9265H147.833L163.123 52.9864V41.9816H169.743L169.799 64.2226H162.704L146.952 52.2814V64.2336H139.968L139.979 64.2447ZM217.629 50.1994H228.37V55.8285H217.629V64.1125H208.112V41.9265H257V47.5446H247.659V64.1345H238.13V47.5446H217.629V50.1884V50.1994ZM175.439 41.9265H202.769V47.5446H184.956V50.1994H199.167V55.8285H184.956V58.4833H202.769V64.1345H175.439V41.9265Z" fill="#00953F"/>
<path fill-rule="evenodd" clip-rule="evenodd" d="M50.6729 41.9265H78.6642V47.5446H69.1355V64.1455H59.6178V47.5446H50.6729V41.9265ZM106.788 41.9265H134.779V47.5446H125.25V64.1455H115.722V47.5446H106.777V41.9265H106.788ZM75.4146 64.1565L87.8845 41.9265H97.8318L109.949 64.1455H99.1317L97.1489 60.6865H83.9078L81.958 64.1565H75.4146ZM87.0694 55.0574H94.0534L90.5944 48.7674L87.0694 55.0574Z" fill="#E2000F"/>
</svg>
