<svg width="215" height="32" viewBox="0 0 215 32" fill="none" xmlns="http://www.w3.org/2000/svg">
<g clip-path="url(#clip0_102_202)">
<path d="M74.9369 9.09331H70.0432C68.5251 6.47034 65.6644 4.70473 62.388 4.70473C57.5187 4.70473 53.5728 8.60165 53.5728 13.4104C53.5728 16.473 55.1754 19.1674 57.5996 20.7175V25.651C52.6274 23.7534 49.1008 18.987 49.1008 13.4092C49.1008 6.16154 55.0504 0.285889 62.388 0.285889C68.194 0.285889 73.1307 3.96483 74.9369 9.0921V9.09331Z" fill="url(#paint0_linear_102_202)"/>
<path d="M75.7879 11.4281V19.1699C75.7879 20.8931 75.2631 22.6078 74.1534 23.9472C73.9241 24.2257 73.6641 24.4994 73.3661 24.7634C73.1368 24.968 72.9014 25.1533 72.6623 25.3192C72.6623 25.3192 71.9768 25.7963 71.1271 26.1415C70.2246 26.5072 68.5705 26.8317 66.4847 26.7239V25.8956C66.4847 24.7428 66.4847 23.5887 66.4822 22.4359C66.6674 22.4601 67.1493 22.5146 67.7391 22.4819C68.6072 22.4323 69.7133 22.1913 70.4625 21.3739C71.1835 20.5855 71.3073 19.5501 71.4925 17.9856C71.62 16.9114 71.5943 16.0177 71.5489 15.4171C71.4557 15.4013 71.2558 15.3711 70.9787 15.3481C70.9027 15.342 70.8218 15.3372 70.7359 15.3335C69.6667 15.279 67.8151 15.4086 66.4062 16.691C65.1555 17.8318 64.8146 19.3697 64.6662 20.0345C64.5375 20.6182 64.5264 21.0203 64.535 21.8534C64.5399 22.2373 64.5485 22.7132 64.5534 23.3417C64.5559 23.6747 64.5559 23.9835 64.5534 24.5926C64.5485 25.2938 64.5387 25.8944 64.5277 26.3607C64.524 26.4927 64.5203 26.6137 64.5191 26.7239C63.055 26.7239 61.5934 26.7239 60.1293 26.7215V21.0602C60.1293 18.3949 61.1581 15.7864 63.1396 13.9518C63.1568 13.9361 63.1752 13.9191 63.1936 13.9034C65.1861 12.0821 67.5625 11.3107 69.7133 11.0467C70.0983 10.9982 70.4772 10.968 70.8438 10.9498C71.121 10.9365 71.3944 10.9304 71.658 10.9304C73.1969 10.9304 74.4771 11.1399 75.1969 11.2901C75.3182 11.3143 75.4225 11.3373 75.5108 11.3591C75.6444 11.3906 75.7388 11.416 75.7879 11.4281Z" fill="url(#paint1_linear_102_202)"/>
<path d="M0 0.362061H17.4121V4.13182H4.93547V10.7995H10.0733C13.0088 10.7995 15.2662 11.503 16.8431 12.9102C18.4213 14.3173 19.2097 16.2585 19.2097 18.7362C19.2097 21.2138 18.4213 23.1817 16.8431 24.607C15.265 26.0323 13.0088 26.7456 10.0733 26.7456H0V0.362061ZM4.93547 23.0121H9.72379C11.4233 23.0121 12.6385 22.6137 13.3656 21.8169C14.0928 21.0201 14.4569 19.9932 14.4569 18.7362C14.4569 17.4792 14.0928 16.462 13.3656 15.6833C12.6373 14.9047 11.4233 14.5147 9.72379 14.5147H4.93547V23.0121Z" fill="#18AE72"/>
<path d="M40.0343 26.7456V9.60422C40.0343 9.20581 40.0368 8.75896 40.0429 8.26367C40.049 7.76838 40.0576 7.31548 40.0699 6.90496H39.9411C39.7572 7.27915 39.5647 7.65455 39.3636 8.02874C39.1613 8.40293 38.9381 8.8074 38.6941 9.24214L28.4933 26.7456H23.1728V0.362061H28.1083V17.5034C28.1083 17.9018 28.1058 18.3523 28.0997 18.8536C28.0935 19.355 28.0837 19.8043 28.0727 20.2039H28.2198C28.367 19.8781 28.5497 19.51 28.7704 19.0983C28.9911 18.6877 29.2167 18.2772 29.4497 17.8667L39.6493 0.362061H44.9698V26.7456H40.0343Z" fill="#18AE72"/>
<path d="M100.951 26.7443H81.025V0.362061H85.9605V22.9758H97.2808V0.362061H102.216V22.9758H105.518V32H100.95V26.7456L100.951 26.7443Z" fill="#2E3690"/>
<path d="M125.739 26.7444V9.60301C125.739 9.2046 125.741 8.75775 125.747 8.26246C125.753 7.76717 125.762 7.31426 125.774 6.90374H125.645C125.461 7.27794 125.269 7.65334 125.068 8.02753C124.865 8.40172 124.642 8.80619 124.398 9.24214L114.197 26.7456H108.877V0.362061H113.812V17.5034C113.812 17.9018 113.81 18.3523 113.804 18.8536C113.798 19.355 113.788 19.8055 113.777 20.2039H113.924C114.071 19.8781 114.254 19.5088 114.475 19.0983C114.695 18.6877 114.921 18.2772 115.154 17.8667L125.353 0.362061H130.674V26.7444H125.739Z" fill="#2E3690"/>
<path d="M152.6 3.37014H153.113C157.138 3.37014 160.178 4.26142 162.233 6.04276C164.288 7.82532 165.315 10.2557 165.315 13.3365C165.315 16.4172 164.288 18.8597 162.233 20.629C160.178 22.3994 157.138 23.2834 153.113 23.2834H152.6V27.1065H147.867V23.2834H147.353C143.316 23.2834 140.27 22.3958 138.215 20.6193C136.16 18.844 135.132 16.4099 135.132 13.3171C135.132 10.2243 136.16 7.80836 138.215 6.03307C140.27 4.25779 143.316 3.36893 147.353 3.36893H147.867V0H152.6V3.37014ZM141.664 8.63425C140.539 9.71565 139.976 11.2705 139.976 13.3001C139.976 15.3297 140.535 16.8967 141.655 18.0023C142.774 19.108 144.672 19.6602 147.352 19.6602H147.865V7.01275H147.352C144.685 7.01275 142.789 7.55406 141.663 8.63425H141.664ZM152.6 7.01275V19.6602H153.113C155.78 19.6602 157.676 19.1225 158.802 18.0472C159.927 16.9718 160.49 15.4084 160.49 13.3546C160.49 11.3008 159.927 9.79194 158.802 8.68026C157.676 7.56859 155.78 7.01275 153.113 7.01275H152.6Z" fill="#2E3690"/>
<path d="M169.791 0.362061H179.533C182.579 0.362061 184.921 1.09591 186.561 2.56361C188.2 4.03131 189.019 6.08149 189.019 8.71536C189.019 11.3492 188.199 13.3934 186.561 14.8853C184.921 16.3772 182.573 17.1232 179.515 17.1232H174.708V26.7444H169.791V0.362061ZM179.185 13.4079C181.032 13.4079 182.313 12.9792 183.029 12.1218C183.745 11.2645 184.102 10.1286 184.102 8.71536C184.102 7.30216 183.744 6.19411 183.029 5.3537C182.313 4.51449 181.032 4.09428 179.185 4.09428H174.708V13.4091H179.185V13.4079Z" fill="#2E3690"/>
<path d="M199.734 0.218018H204.724L214.999 26.7456H209.752L202.706 7.66551C202.559 7.2671 202.44 6.8808 202.348 6.5054C202.256 6.13121 202.168 5.75096 202.082 5.36345H201.916C201.843 5.74975 201.757 6.13121 201.66 6.5054C201.562 6.87959 201.441 7.26589 201.293 7.66551L194.248 26.7456H189.587L199.734 0.218018ZM196.101 16.8701H208.155L209.385 20.5672H194.872L196.101 16.8701Z" fill="#2E3690"/>
</g>
<defs>
<linearGradient id="paint0_linear_102_202" x1="62.0189" y1="25.6522" x2="62.0189" y2="0.287098" gradientUnits="userSpaceOnUse">
<stop stop-color="#2E3690"/>
<stop offset="0.07" stop-color="#2A468B"/>
<stop offset="0.26" stop-color="#246B82"/>
<stop offset="0.45" stop-color="#1E887B"/>
<stop offset="0.64" stop-color="#1B9D76"/>
<stop offset="0.82" stop-color="#18A973"/>
<stop offset="1" stop-color="#18AE72"/>
</linearGradient>
<linearGradient id="paint1_linear_102_202" x1="67.9598" y1="26.7445" x2="67.9598" y2="10.9292" gradientUnits="userSpaceOnUse">
<stop stop-color="#2E3690"/>
<stop offset="0.07" stop-color="#2A468B"/>
<stop offset="0.26" stop-color="#246B82"/>
<stop offset="0.45" stop-color="#1E887B"/>
<stop offset="0.64" stop-color="#1B9D76"/>
<stop offset="0.82" stop-color="#18A973"/>
<stop offset="1" stop-color="#18AE72"/>
</linearGradient>
<clipPath id="clip0_102_202">
<rect width="215" height="32" fill="white"/>
</clipPath>
</defs>
</svg>
