<svg width="172" height="25" viewBox="0 0 172 25" fill="none" xmlns="http://www.w3.org/2000/svg">
<path d="M0.0478516 0.951878H14.5047V3.27921H2.75851V8.75528H8.72742C11.0091 8.75528 12.7432 9.22987 13.9297 10.1791C15.1162 11.1282 15.7094 12.4973 15.7094 14.2861C15.7094 16.1662 15.0614 17.6083 13.7654 18.6122C12.4877 19.6161 10.6532 20.1181 8.26196 20.1181H0.0478516V0.951878ZM8.15244 17.9551C9.72224 17.9551 10.9179 17.6539 11.7393 17.0515C12.5607 16.4492 12.9714 15.5639 12.9714 14.3956C12.9714 12.0774 11.3651 10.9183 8.15244 10.9183H2.75851V17.9551H8.15244Z" fill="white"/>
<path d="M20.0751 0.951878H22.7857V15.7373L34.1212 0.951878H36.6402V20.1181H33.9569V5.36011L22.5941 20.1181H20.0751V0.951878Z" fill="white"/>
<path d="M51.2406 20.3372C49.3057 20.3372 47.5625 19.9173 46.0109 19.0777C44.4593 18.2198 43.2364 17.0424 42.3419 15.5456C41.4658 14.0488 41.0277 12.3786 41.0277 10.535C41.0277 8.69139 41.4658 7.02119 42.3419 5.5244C43.2364 4.0276 44.4593 2.85938 46.0109 2.01971C47.5625 1.1618 49.3057 0.732837 51.2406 0.732837C53.1572 0.732837 54.8913 1.1618 56.4428 2.01971C57.9944 2.85938 59.2082 4.0276 60.0844 5.5244C60.9606 7.00294 61.3987 8.67314 61.3987 10.535C61.3987 12.3969 60.9606 14.0762 60.0844 15.573C59.2082 17.0515 57.9944 18.2198 56.4428 19.0777C54.8913 19.9173 53.1572 20.3372 51.2406 20.3372ZM51.2406 17.9003C52.6461 17.9003 53.9056 17.5809 55.019 16.942C56.1508 16.3031 57.0361 15.427 57.6749 14.3135C58.3321 13.1818 58.6606 11.9223 58.6606 10.535C58.6606 9.14773 58.3321 7.89736 57.6749 6.78389C57.0361 5.65217 56.1508 4.76687 55.019 4.128C53.9056 3.48912 52.6461 3.16969 51.2406 3.16969C49.835 3.16969 48.5573 3.48912 47.4073 4.128C46.2756 4.76687 45.3812 5.65217 44.724 6.78389C44.0852 7.89736 43.7657 9.14773 43.7657 10.535C43.7657 11.9223 44.0852 13.1818 44.724 14.3135C45.3812 15.427 46.2756 16.3031 47.4073 16.942C48.5573 17.5809 49.835 17.9003 51.2406 17.9003Z" fill="white"/>
<path d="M84.8816 17.736V24.4716H82.3352V20.1181H65.8249V0.951878H68.5355V17.736H79.2138V0.951878H81.9245V17.736H84.8816Z" fill="white"/>
<path d="M88.526 0.951878H91.2366V15.7373L102.572 0.951878H105.091V20.1181H102.408V5.36011L91.0449 20.1181H88.526V0.951878Z" fill="white"/>
<path d="M132.204 10.5076C132.204 13.0449 131.319 15.0345 129.548 16.4765C127.778 17.9186 125.277 18.6943 122.046 18.8039V20.83H119.5V18.8039C116.269 18.6761 113.759 17.8912 111.97 16.4492C110.2 15.0071 109.314 13.0266 109.314 10.5076C109.314 7.97038 110.2 5.98074 111.97 4.5387C113.759 3.09667 116.269 2.31177 119.5 2.18399V0.23999H122.046V2.18399C125.259 2.31177 127.75 3.1058 129.521 4.56608C131.31 6.00812 132.204 7.98863 132.204 10.5076ZM122.046 16.6682C124.492 16.5222 126.354 15.9289 127.632 14.8885C128.928 13.8298 129.576 12.3604 129.576 10.4802C129.576 8.63663 128.919 7.1946 127.604 6.15414C126.308 5.09544 124.456 4.49307 122.046 4.34704V16.6682ZM111.97 10.5076C111.97 12.3695 112.618 13.8298 113.914 14.8885C115.228 15.9289 117.09 16.5222 119.5 16.6682V4.34704C117.054 4.49307 115.183 5.08631 113.887 6.12676C112.609 7.16722 111.97 8.6275 111.97 10.5076Z" fill="white"/>
<path d="M143.89 0.951878C146.372 0.951878 148.325 1.54512 149.749 2.7316C151.173 3.91808 151.885 5.55178 151.885 7.63268C151.885 9.71359 151.173 11.3473 149.749 12.5338C148.325 13.7202 146.372 14.3135 143.89 14.3135H139.153V20.1181H136.415V0.951878H143.89ZM143.808 11.9314C145.542 11.9314 146.865 11.5663 147.778 10.8362C148.69 10.0878 149.147 9.01995 149.147 7.63268C149.147 6.24541 148.69 5.18671 147.778 4.45656C146.865 3.70817 145.542 3.33397 143.808 3.33397H139.153V11.9314H143.808Z" fill="white"/>
<path d="M167.189 15.3266H157.003L154.895 20.1181H152.075L160.754 0.951878H163.465L172.172 20.1181H169.297L167.189 15.3266ZM166.231 13.1361L162.096 3.74467L157.962 13.1361H166.231Z" fill="white"/>
</svg>
