<svg width="706" height="719" viewBox="0 0 706 719" fill="none" xmlns="http://www.w3.org/2000/svg">
<path d="M693.756 19.5084C689.799 18.5701 685.091 17.4453 679.628 16.3837C627.062 5.52437 573.518 0.0360876 519.829 0C507.964 0 495.657 1.31862e-05 483.163 0.875139C466.649 1.68711 449.571 3.1246 432.176 5.31391C335.229 17.3221 228.051 52.4023 138.198 135.257C137.32 135.945 136.504 136.757 135.749 137.446C46.402 220.926 0 339.549 0 460.737V718.243H197.973C197.973 713.239 197.973 707.739 198.412 701.733C198.851 680.535 199.293 653.147 199.543 621.318C199.543 593.618 199.543 579.547 199.543 564.414C199.543 535.835 198.914 514.387 198.665 496.692C198.289 459.173 198.665 440.414 204.567 413.961C211.222 383.759 226.667 313.911 283.054 261.945C346.658 203.603 430.106 197.727 478.328 200.226C482.221 200.226 485.861 200.602 489.315 200.852C501.872 201.916 510.789 203.291 514.995 203.979C517.892 242.906 517.053 282.022 512.483 320.789C504.071 391.951 498.482 439.036 466.021 474.868C432.239 512.075 382.323 523.018 343.141 525.268C324.282 526.281 305.368 525.59 286.631 523.205C286.631 575.649 286.631 628.093 286.631 680.535V718.054C380.816 722.932 455.284 708.175 495.97 691.541C520.196 681.374 543.337 668.803 565.037 654.022C590.221 636.315 612.865 615.279 632.348 591.491C682.579 530.585 706 452.605 706 374.253V22.5097C704.054 22.0736 699.848 20.9489 693.756 19.5084Z" fill="url(#paint0_linear_9_22)"/>
<defs>
<linearGradient id="paint0_linear_9_22" x1="211.591" y1="719" x2="211.591" y2="0" gradientUnits="userSpaceOnUse">
<stop stop-color="#001A89"/>
<stop offset="1" stop-color="#001A89" stop-opacity="0"/>
</linearGradient>
</defs>
</svg>
