<svg width="208" height="89" viewBox="0 0 208 89" fill="none" xmlns="http://www.w3.org/2000/svg">
<path fill-rule="evenodd" clip-rule="evenodd" d="M69.9951 88.1586C65.6445 88.1809 56.7872 87.5785 47.9566 81.974C45.6006 80.4792 33.8473 73.0185 31.5582 59.9489C30.88 56.0669 31.2325 52.8318 31.5315 50.1367C32.1517 44.4921 33.5528 41.9844 37.2519 31.7348C40.1925 23.5914 41.6828 19.4283 42.5752 15.042C43.8514 8.75037 43.9853 3.44935 43.9005 0.00012207C47.5282 2.24011 52.7668 6.00616 57.7644 11.8873C61.4501 16.2245 69.9817 26.2687 70.8295 41.0072C71.8603 58.945 60.7941 71.5773 58.2641 74.3259C55.4887 71.1311 49.4335 63.2911 47.3675 51.3905C45.2793 39.374 48.4162 29.8697 49.9645 25.9341C47.8852 28.9014 40.6119 40.0612 42.5752 54.7862C44.5564 69.6139 55.1496 82.3533 69.9951 88.163V88.1586Z" fill="#B9D050"/>
<path fill-rule="evenodd" clip-rule="evenodd" d="M27.0023 52.9477C26.8149 50.8818 26.7703 47.794 27.6315 44.193C28.4614 40.7125 29.8269 38.0487 30.8933 36.3129C27.2834 34.827 22.7856 33.3233 17.5158 32.2836C10.6709 30.9316 4.65146 30.7888 0.00191516 31.0297C-0.0828654 41.132 2.66583 48.4811 4.53546 52.4748C6.32032 56.2854 8.35951 60.6449 12.9778 64.3842C19.7781 69.886 27.5735 70.3278 30.6836 70.3278C29.2602 66.0843 27.0692 60.8368 23.6245 55.2591C19.3854 48.3919 14.7002 43.3586 10.9565 39.9094C13.723 41.4934 16.8911 43.5862 20.1663 46.3215C22.8971 48.6016 25.1595 50.8773 27.0023 52.9522V52.9477Z" fill="#566F28"/>
<path d="M90.7797 18.6917L90.329 19.1691V11.5924H92.3414V19.1691L91.8684 18.6917H95.572L95.099 19.1691V11.5924H97.0981V20.3471H85.5545V11.5924H87.5535V19.1691L87.1029 18.6917H90.7797Z" fill="black"/>
<path d="M99.2578 20.3424V11.5876H101.284V20.3424H99.2578ZM100.681 16.8173V15.1306H103.733V16.8173H100.681ZM104.046 16.1926L102.172 15.9695L105.023 11.5921H107.174L104.046 16.1926ZM104.934 20.3424L102.221 16.1301L103.858 15.144L107.245 20.3468H104.934V20.3424Z" fill="black"/>
<path d="M112.35 20.4943C111.658 20.4943 111.02 20.3827 110.435 20.1552C109.851 19.9321 109.342 19.6153 108.909 19.2047C108.477 18.7942 108.142 18.3168 107.901 17.7679C107.664 17.2191 107.544 16.6167 107.544 15.9652C107.544 15.3138 107.664 14.7024 107.901 14.1581C108.137 13.6137 108.472 13.1362 108.909 12.7257C109.342 12.3152 109.851 11.9984 110.431 11.7753C111.011 11.5522 111.645 11.4362 112.336 11.4362C113.028 11.4362 113.666 11.5477 114.242 11.7664C114.822 11.9895 115.326 12.3018 115.763 12.7123C116.196 13.1228 116.531 13.6003 116.772 14.1491C117.008 14.698 117.129 15.3048 117.129 15.9608C117.129 16.6167 117.008 17.2146 116.772 17.7679C116.535 18.3212 116.2 18.8031 115.763 19.2137C115.33 19.6242 114.822 19.9365 114.242 20.1596C113.662 20.3783 113.032 20.4898 112.345 20.4898L112.35 20.4943ZM112.336 18.7808C112.729 18.7808 113.09 18.7139 113.416 18.5756C113.746 18.4373 114.036 18.2409 114.286 17.9866C114.536 17.7322 114.728 17.4377 114.866 17.0986C115.005 16.7595 115.072 16.3847 115.072 15.9652C115.072 15.5458 115.005 15.171 114.866 14.8318C114.728 14.4927 114.536 14.1982 114.286 13.9439C114.036 13.6895 113.746 13.4932 113.416 13.3549C113.086 13.2166 112.725 13.1496 112.336 13.1496C111.948 13.1496 111.582 13.2166 111.248 13.3549C110.913 13.4932 110.623 13.6895 110.377 13.9439C110.132 14.1982 109.94 14.4927 109.802 14.8318C109.663 15.171 109.597 15.5458 109.597 15.9652C109.597 16.3847 109.663 16.7595 109.802 17.0986C109.94 17.4377 110.132 17.7322 110.377 17.9866C110.623 18.2409 110.913 18.4373 111.248 18.5756C111.582 18.7139 111.944 18.7808 112.336 18.7808Z" fill="black"/>
<path d="M118.53 20.481C118.369 20.481 118.213 20.4676 118.048 20.4453C117.887 20.4185 117.713 20.3873 117.53 20.3471L117.655 18.6337C117.771 18.6649 117.887 18.6827 118.003 18.6827C118.351 18.6827 118.623 18.5444 118.811 18.2722C118.998 17.9956 119.137 17.594 119.221 17.0585C119.311 16.5231 119.364 15.8894 119.391 15.1443L119.516 11.5924H126.245V20.3471H124.246V12.7793L124.71 13.2434H120.846L121.256 12.7659L121.18 15.0684C121.153 15.9251 121.095 16.6926 121.006 17.362C120.912 18.0313 120.77 18.598 120.573 19.062C120.377 19.5261 120.114 19.8786 119.784 20.1196C119.453 20.3605 119.034 20.481 118.525 20.481H118.53Z" fill="black"/>
<path d="M132.684 14.4794C133.728 14.4794 134.535 14.7114 135.115 15.18C135.696 15.6485 135.986 16.3535 135.986 17.295C135.986 18.2945 135.669 19.0531 135.031 19.5707C134.393 20.0883 133.514 20.3471 132.385 20.3471H128.431V11.5924H130.43V14.4794H132.679H132.684ZM132.26 18.8434C132.795 18.8434 133.21 18.714 133.505 18.4507C133.799 18.1875 133.946 17.8171 133.946 17.3307C133.946 16.8443 133.799 16.4963 133.505 16.2821C133.21 16.0635 132.795 15.9564 132.26 15.9564H130.435V18.8434H132.26Z" fill="black"/>
<path d="M139.488 20.3424H137.449V11.5876H139.488V20.3424ZM143.602 16.7548H139.328V15.0413H143.602V16.7548ZM143.451 11.5921H145.476V20.3468H143.451V11.5921Z" fill="black"/>
<path d="M151.915 14.4791C152.959 14.4791 153.767 14.7111 154.347 15.1797C154.927 15.6482 155.217 16.3532 155.217 17.2947C155.217 18.2942 154.901 19.0528 154.262 19.5704C153.624 20.088 152.745 20.3468 151.616 20.3468H147.663V11.5921H149.662V14.4791H151.911H151.915ZM151.491 18.8431C152.027 18.8431 152.442 18.7137 152.736 18.4504C153.031 18.1872 153.178 17.8168 153.178 17.3304C153.178 16.844 153.031 16.496 152.736 16.2818C152.442 16.0632 152.027 15.9561 151.491 15.9561H149.666V18.8431H151.491ZM156.342 20.3424V11.5876H158.341V20.3424H156.342Z" fill="black"/>
<path d="M162.535 18.7181H167.301V20.3424H160.523V11.5876H167.14V13.2119H162.54V18.7137L162.535 18.7181ZM162.384 15.1038H166.596V16.6923H162.384V15.1038Z" fill="black"/>
<path d="M84.8316 66.9538V30.3464H114.326V37.0932H93.1981V44.6253H103.394C107.785 44.6253 111.149 45.5489 113.487 47.3963C115.821 49.2436 116.99 51.9298 116.99 55.4504C116.99 58.9711 115.701 61.9027 113.122 63.924C110.542 65.9454 106.897 66.9583 102.194 66.9583H84.8316V66.9538ZM93.1981 60.68H101.672C103.903 60.68 105.585 60.2517 106.718 59.3994C107.852 58.5471 108.418 57.3156 108.418 55.7137C108.418 52.5054 106.17 50.9035 101.672 50.9035H93.1981V60.6845V60.68Z" fill="#B9D050"/>
<path d="M123.425 66.9538V30.3464H131.791V54.2457L149.31 30.3464H157.257V66.9538H148.89V43.1617L131.425 66.9538H123.425Z" fill="#B9D050"/>
<path d="M183.878 67.5832C180.982 67.5832 178.318 67.1146 175.877 66.1731C173.436 65.2316 171.308 63.9064 169.496 62.1974C167.685 60.4884 166.279 58.4849 165.289 56.1824C164.293 53.8799 163.798 51.3722 163.798 48.6503C163.798 45.9284 164.293 43.3761 165.289 41.0959C166.284 38.8113 167.685 36.8167 169.496 35.1077C171.308 33.3987 173.428 32.0735 175.85 31.132C178.273 30.1904 180.933 29.7219 183.824 29.7219C186.716 29.7219 189.375 30.186 191.798 31.1097C194.221 32.0333 196.341 33.3497 198.152 35.0586C199.964 36.7676 201.369 38.7711 202.36 41.0736C203.355 43.3761 203.85 45.9016 203.85 48.6548C203.85 51.4079 203.355 53.8933 202.36 56.2092C201.365 58.5295 199.964 60.5419 198.152 62.2509C196.341 63.9599 194.221 65.2762 191.798 66.1999C189.375 67.1236 186.734 67.5876 183.873 67.5876L183.878 67.5832ZM183.824 60.417C185.462 60.417 186.97 60.1314 188.349 59.5558C189.728 58.9802 190.937 58.1636 191.986 57.0971C193.03 56.0352 193.842 54.7947 194.417 53.3846C194.993 51.9746 195.279 50.395 195.279 48.6503C195.279 46.9056 194.993 45.3305 194.417 43.916C193.842 42.5059 193.03 41.2655 191.986 40.2035C190.941 39.1415 189.728 38.3205 188.349 37.7449C186.97 37.1692 185.462 36.8837 183.824 36.8837C182.187 36.8837 180.67 37.1692 179.273 37.7449C177.876 38.3205 176.667 39.1415 175.636 40.2035C174.606 41.2655 173.807 42.5059 173.231 43.916C172.656 45.326 172.37 46.9056 172.37 48.6503C172.37 50.395 172.656 51.9701 173.231 53.3846C173.807 54.7947 174.61 56.0352 175.636 57.0971C176.663 58.1591 177.876 58.9802 179.273 59.5558C180.665 60.1314 182.182 60.417 183.824 60.417Z" fill="#B9D050"/>
<path d="M85.8535 88.7161C85.6661 88.7161 85.4787 88.7027 85.2824 88.6715C85.0905 88.6402 84.8853 88.6045 84.6711 88.5555L84.8183 86.5296C84.9566 86.5698 85.095 86.5877 85.2333 86.5877C85.6483 86.5877 85.9651 86.427 86.1882 86.1013C86.4113 85.7755 86.5719 85.2981 86.6746 84.6689C86.7772 84.0398 86.8441 83.2857 86.8754 82.4066L87.0226 78.2078H94.9741V88.551H92.6092V79.6089L93.158 80.1577H88.5933L89.0797 79.5955L88.9904 82.3129C88.9592 83.3258 88.8923 84.2316 88.7852 85.0259C88.6781 85.8202 88.5085 86.4895 88.2765 87.0339C88.0444 87.5827 87.7366 87.9977 87.3439 88.2833C86.9557 88.5689 86.4604 88.7116 85.858 88.7116L85.8535 88.7161Z" fill="black"/>
<path d="M96.3753 88.5554L100.971 78.2122H103.336L107.977 88.5554H105.465L101.667 79.4214H102.627L98.8295 88.5554H96.3753ZM98.6956 86.3377L99.3024 84.5216H104.653L105.273 86.3377H98.6956Z" fill="black"/>
<path d="M109.364 88.5554V78.2122H117.7V80.1175H111.729V82.2459H114.612C115.852 82.2459 116.803 82.5092 117.463 83.0313C118.124 83.5533 118.454 84.3119 118.454 85.307C118.454 86.302 118.088 87.132 117.361 87.7031C116.633 88.2743 115.603 88.5599 114.273 88.5599H109.364V88.5554ZM111.729 86.7839H114.126C114.755 86.7839 115.232 86.6634 115.553 86.4225C115.875 86.1815 116.035 85.8335 116.035 85.3783C116.035 84.4725 115.402 84.0174 114.13 84.0174H111.734V86.7795L111.729 86.7839Z" fill="black"/>
<path d="M125.223 88.7295C124.406 88.7295 123.652 88.5956 122.961 88.3324C122.269 88.0646 121.671 87.6943 121.158 87.2079C120.645 86.726 120.248 86.1593 119.967 85.5078C119.685 84.8564 119.547 84.1469 119.547 83.3794C119.547 82.6119 119.685 81.8891 119.967 81.242C120.248 80.595 120.645 80.0328 121.158 79.5509C121.671 79.069 122.269 78.6941 122.952 78.4264C123.634 78.1587 124.389 78.0293 125.205 78.0293C126.022 78.0293 126.776 78.1587 127.458 78.422C128.141 78.6852 128.744 79.0556 129.252 79.5375C129.765 80.0194 130.163 80.5861 130.444 81.2376C130.725 81.889 130.863 82.603 130.863 83.3794C130.863 84.1558 130.725 84.8608 130.444 85.5168C130.163 86.1727 129.765 86.7394 129.252 87.2258C128.739 87.7077 128.141 88.0825 127.458 88.3413C126.776 88.6001 126.026 88.734 125.218 88.734L125.223 88.7295ZM125.21 86.7037C125.674 86.7037 126.097 86.6234 126.486 86.4583C126.874 86.2976 127.218 86.0656 127.512 85.7622C127.807 85.4632 128.039 85.1107 128.199 84.7136C128.36 84.3165 128.445 83.8702 128.445 83.3749C128.445 82.8796 128.364 82.4379 128.199 82.0363C128.039 81.6392 127.807 81.2867 127.512 80.9877C127.218 80.6887 126.874 80.4567 126.486 80.2916C126.097 80.131 125.669 80.0462 125.21 80.0462C124.75 80.0462 124.317 80.1265 123.924 80.2916C123.532 80.4522 123.188 80.6843 122.898 80.9877C122.608 81.2867 122.381 81.6392 122.22 82.0363C122.059 82.4334 121.974 82.8796 121.974 83.3749C121.974 83.8702 122.055 84.312 122.22 84.7136C122.381 85.1107 122.608 85.4632 122.898 85.7622C123.188 86.0611 123.532 86.2932 123.924 86.4583C124.317 86.6189 124.745 86.7037 125.21 86.7037Z" fill="black"/>
<path d="M132.715 88.5554V78.2122H137.195C138.123 78.2122 138.917 78.3639 139.591 78.6628C140.26 78.9618 140.778 79.3946 141.144 79.9569C141.51 80.5191 141.693 81.1839 141.693 81.9514C141.693 82.7189 141.51 83.3972 141.144 83.9549C140.778 84.5127 140.26 84.9411 139.591 85.2489C138.922 85.5524 138.123 85.7085 137.195 85.7085H134.031L135.124 84.6287V88.5599H132.715V88.5554ZM135.124 84.892L134.031 83.7541H137.061C137.788 83.7541 138.342 83.598 138.716 83.2811C139.091 82.9643 139.279 82.5226 139.279 81.9514C139.279 81.3803 139.091 80.9385 138.716 80.6306C138.342 80.3183 137.788 80.1666 137.061 80.1666H134.031L135.124 79.0287V84.8964V84.892Z" fill="black"/>
<path d="M141.568 88.5554L146.164 78.2122H148.529L153.169 88.5554H150.657L146.86 79.4214H147.819L144.022 88.5554H141.568ZM143.888 86.3377L144.495 84.5216H149.845L150.465 86.3377H143.888Z" fill="black"/>
<path d="M156.275 88.5554V79.5999L156.824 80.1621H152.982V78.2122H161.951V80.1621H158.109L158.64 79.5999V88.5554H156.275Z" fill="black"/>
<path d="M168.26 88.7295C167.444 88.7295 166.689 88.5956 165.998 88.3324C165.306 88.0646 164.708 87.6943 164.195 87.2079C163.682 86.726 163.285 86.1593 163.004 85.5078C162.723 84.8564 162.584 84.1469 162.584 83.3794C162.584 82.6119 162.723 81.8891 163.004 81.242C163.285 80.595 163.682 80.0328 164.195 79.5509C164.708 79.069 165.306 78.6941 165.989 78.4264C166.672 78.1587 167.426 78.0293 168.242 78.0293C169.059 78.0293 169.813 78.1587 170.496 78.422C171.178 78.6852 171.781 79.0556 172.289 79.5375C172.803 80.0194 173.2 80.5861 173.481 81.2376C173.762 81.889 173.9 82.603 173.9 83.3794C173.9 84.1558 173.762 84.8608 173.481 85.5168C173.2 86.1727 172.803 86.7394 172.289 87.2258C171.776 87.7077 171.178 88.0825 170.496 88.3413C169.813 88.6001 169.063 88.734 168.256 88.734L168.26 88.7295ZM168.247 86.7037C168.711 86.7037 169.135 86.6234 169.523 86.4583C169.911 86.2976 170.255 86.0656 170.549 85.7622C170.844 85.4632 171.076 85.1107 171.236 84.7136C171.397 84.3165 171.482 83.8702 171.482 83.3749C171.482 82.8796 171.401 82.4379 171.236 82.0363C171.076 81.6392 170.844 81.2867 170.549 80.9877C170.255 80.6887 169.911 80.4567 169.523 80.2916C169.135 80.131 168.706 80.0462 168.247 80.0462C167.787 80.0462 167.354 80.1265 166.962 80.2916C166.569 80.4522 166.225 80.6843 165.935 80.9877C165.645 81.2867 165.418 81.6392 165.257 82.0363C165.096 82.4334 165.012 82.8796 165.012 83.3749C165.012 83.8702 165.092 84.312 165.257 84.7136C165.418 85.1107 165.645 85.4632 165.935 85.7622C166.225 86.0611 166.569 86.2932 166.962 86.4583C167.354 86.6189 167.783 86.7037 168.247 86.7037Z" fill="black"/>
<path d="M175.752 88.5554V78.2122H180.232C181.16 78.2122 181.954 78.3639 182.628 78.6628C183.298 78.9618 183.815 79.3946 184.181 79.9569C184.547 80.5191 184.73 81.1839 184.73 81.9514C184.73 82.7189 184.547 83.3972 184.181 83.9549C183.815 84.5127 183.298 84.9411 182.628 85.2489C181.959 85.5524 181.16 85.7085 180.232 85.7085H177.068L178.162 84.6287V88.5599H175.752V88.5554ZM178.162 84.892L177.068 83.7541H180.098C180.826 83.7541 181.379 83.598 181.754 83.2811C182.129 82.9643 182.316 82.5226 182.316 81.9514C182.316 81.3803 182.129 80.9385 181.754 80.6306C181.379 80.3183 180.826 80.1666 180.098 80.1666H177.068L178.162 79.0287V84.8964V84.892Z" fill="black"/>
<path d="M186.305 88.5554V78.2122H188.67V84.9678L193.623 78.2122H195.868V88.5554H193.503V81.8309L188.568 88.5554H186.305Z" fill="black"/>
<path d="M198.438 88.5554V78.2122H200.803V84.9678L205.756 78.2122H208V88.5554H205.635V81.8309L200.7 88.5554H198.438Z" fill="black"/>
</svg>
