<svg width="211" height="62" viewBox="0 0 211 62" fill="none" xmlns="http://www.w3.org/2000/svg">
<path fill-rule="evenodd" clip-rule="evenodd" d="M28.5 17.4508C22.2316 17.4508 17.15 22.6216 17.15 29C17.15 35.3784 22.2316 40.5492 28.5 40.5492C34.7684 40.5492 39.85 35.3784 39.85 29C39.85 22.6216 34.7684 17.4508 28.5 17.4508ZM0 29C0 12.9838 12.7599 0 28.5 0C44.2401 0 57 12.9838 57 29C57 45.0162 44.2401 58 28.5 58C12.7599 58 0 45.0162 0 29Z" fill="#2EC4B6"/>
<path d="M60 1H41V57H60V1Z" fill="#464ED6"/>
<path d="M57 29C57 40.4052 50.4779 50.275 41 55V3C50.4827 7.72503 57 17.5947 57 29Z" fill="#FF8600"/>
<path d="M76.2904 13.99C75.3448 13.99 74.5575 13.8133 73.924 13.465C73.2905 13.1116 72.8106 12.6421 72.4845 12.0564C72.1584 11.4708 72.0001 10.8145 72.0001 10.0976C72.0001 9.28984 72.1911 8.60323 72.573 8.03779C72.955 7.47236 73.5327 7.04324 74.3153 6.75547C75.0979 6.46771 76.0855 6.32131 77.2827 6.32131H79.6911V8.82034H78.042C77.5342 8.82034 77.1662 8.90615 76.9333 9.08285C76.7004 9.25954 76.5839 9.52207 76.5839 9.87547C76.5839 10.1683 76.6864 10.4056 76.8914 10.5974C77.0963 10.7893 77.3758 10.8852 77.7252 10.8852C78.0513 10.8852 78.3494 10.7893 78.6243 10.5974C78.8991 10.4056 79.0995 10.1027 79.2252 9.69373L79.8401 11.2285C79.6584 12.1625 79.2671 12.8541 78.6755 13.3135C78.0839 13.7729 77.2873 14.0001 76.2858 14.0001L76.2904 13.99ZM79.5653 13.7629V11.5415L79.2252 10.9458V6.73024C79.2252 6.11936 79.0529 5.65489 78.7082 5.33178C78.3634 5.00867 77.8044 4.85216 77.0264 4.85216C76.5047 4.85216 75.9783 4.938 75.4426 5.1147C74.9069 5.2914 74.4504 5.52867 74.0684 5.83664L72.5451 2.42382C73.2205 1.9644 74.0311 1.61607 74.9768 1.36869C75.9224 1.12636 76.8448 1.00012 77.7438 1.00012C79.733 1.00012 81.2703 1.47976 82.3603 2.44403C83.4504 3.4083 84.0001 4.93296 84.0001 7.02306V13.7578H79.5606L79.5653 13.7629Z" fill="#272635"/>
<path d="M86.0001 13.0001V1.00012H91.2619V13.0001H86.0001ZM89.727 9.00657V5.21125H94.4806V9.00657H89.727ZM96.0874 7.53679L91.149 7.09681L95.2044 1.00012H100.749L96.0925 7.53679H96.0874ZM94.804 13.0001L91.3081 7.49327L95.5483 5.16773L101 13.0001H94.804Z" fill="#272635"/>
<path d="M105.29 13.99C104.345 13.99 103.558 13.8133 102.924 13.465C102.29 13.1116 101.811 12.6421 101.485 12.0564C101.158 11.4708 101 10.8145 101 10.0976C101 9.28984 101.191 8.60323 101.573 8.03779C101.955 7.47236 102.533 7.04324 103.315 6.75547C104.098 6.46771 105.085 6.32131 106.283 6.32131H108.691V8.82034H107.042C106.534 8.82034 106.166 8.90615 105.933 9.08285C105.7 9.25954 105.584 9.52207 105.584 9.87547C105.584 10.1683 105.686 10.4056 105.891 10.5974C106.096 10.7893 106.376 10.8852 106.725 10.8852C107.051 10.8852 107.349 10.7893 107.624 10.5974C107.899 10.4056 108.099 10.1027 108.225 9.69373L108.84 11.2285C108.658 12.1625 108.267 12.8541 107.676 13.3135C107.084 13.7729 106.287 14.0001 105.286 14.0001L105.29 13.99ZM108.565 13.7629V11.5415L108.225 10.9458V6.73024C108.225 6.11936 108.053 5.65489 107.708 5.33178C107.363 5.00867 106.804 4.85216 106.026 4.85216C105.505 4.85216 104.978 4.938 104.443 5.1147C103.907 5.2914 103.45 5.52867 103.068 5.83664L101.545 2.42382C102.221 1.9644 103.031 1.61607 103.977 1.36869C104.922 1.12636 105.845 1.00012 106.744 1.00012C108.733 1.00012 110.27 1.47976 111.36 2.44403C112.45 3.4083 113 4.93296 113 7.02306V13.7578H108.561L108.565 13.7629Z" fill="#272635"/>
<path d="M115 16.0001V9.47199H131V16.0001H126.357V13.5262H119.648V16.0001H115.005H115ZM124.379 11.3047V5.02906H121.866L121.842 5.80659C121.827 6.34176 121.803 6.83652 121.763 7.29596C121.724 7.7554 121.656 8.16438 121.553 8.52285C121.45 8.88131 121.298 9.19433 121.097 9.46192C120.897 9.7295 120.617 9.94659 120.265 10.1132L115.353 9.47199C115.74 9.47199 116.058 9.37103 116.308 9.16403C116.557 8.95702 116.753 8.66926 116.895 8.29565C117.037 7.92203 117.14 7.48784 117.209 7.00315C117.277 6.51342 117.317 5.98834 117.331 5.42288L117.488 1.00012H129.379V11.3098H124.379V11.3047Z" fill="#272635"/>
<path d="M138.044 14.0001C136.623 14.0001 135.39 13.7172 134.33 13.1513C133.275 12.5854 132.454 11.8124 131.872 10.8221C131.291 9.83688 131 8.72535 131 7.48749C131 6.24964 131.286 5.09769 131.863 4.11751C132.44 3.13733 133.223 2.37439 134.227 1.82368C135.226 1.27296 136.351 1.00012 137.599 1.00012C138.748 1.00012 139.807 1.24265 140.778 1.73273C141.749 2.22282 142.532 2.94532 143.118 3.91034C143.705 4.87536 144 6.06775 144 7.48749C144 7.66938 143.991 7.87149 143.977 8.0938C143.963 8.3161 143.948 8.51821 143.934 8.7001H134.977V6.19912H141.383L139.573 6.86605C139.573 6.37596 139.493 5.96165 139.329 5.61808C139.165 5.27451 138.945 5.00675 138.658 4.81475C138.372 4.62276 138.035 4.52676 137.636 4.52676C137.237 4.52676 136.895 4.62276 136.604 4.81475C136.314 5.00675 136.088 5.27451 135.934 5.61808C135.779 5.96165 135.699 6.38102 135.699 6.86605V7.64412C135.699 8.17968 135.798 8.63947 135.999 9.0184C136.196 9.40239 136.482 9.6853 136.853 9.8773C137.223 10.0693 137.669 10.1653 138.194 10.1653C138.719 10.1653 139.174 10.0895 139.526 9.93792C139.873 9.78635 140.239 9.55395 140.623 9.2508L143.132 11.9791C142.565 12.636 141.866 13.1361 141.036 13.4797C140.206 13.8233 139.212 13.9951 138.049 13.9951L138.044 14.0001Z" fill="#272635"/>
<path d="M146 13.0001V1.00012H151.237L155.053 8.47959H152.99L157.309 1.00012H161.957L162 13.0001H157.551L157.527 5.78176L158.295 6.30873L154.986 12.0573H152.903L149.594 5.93647L150.449 5.7189V13.0001H146Z" fill="#272635"/>
<path d="M164 13.0001V1.00012H169.425V6.41995L173.984 1.00012H179V13.0001H173.575V7.56096L169.043 13.0001H164.005H164Z" fill="#272635"/>
<path d="M179 13.0001L182.435 8.46023H187.913L184.743 13.0001H179.005H179ZM188.199 13.0001V9.22898L188.872 9.9542H185.87C183.838 9.9542 182.229 9.57707 181.043 8.82284C179.858 8.06861 179.265 7.00496 179.265 5.63188C179.265 4.17177 179.879 3.03075 181.101 2.2185C182.324 1.40626 183.986 1.00012 186.082 1.00012H193V13.0001H188.199ZM188.199 7.75918V3.65927L188.872 4.8438H186.204C185.754 4.8438 185.41 4.92115 185.172 5.07586C184.934 5.23058 184.812 5.47233 184.812 5.81076C184.812 6.51181 185.278 6.86475 186.204 6.86475H188.872L188.199 7.76402V7.75918Z" fill="#272635"/>
<path d="M73.0001 35.5269V23H77.8096V31.4741H80.6313V23H85.4408V35.5269H73.0001ZM82.5344 38V35.5269H80.6313V31.4741H87.0001V38H82.5344Z" fill="#272635"/>
<path d="M89.0001 36V23H93.7018V28.8715L97.653 23H102V36H97.2984V30.1076L93.3702 36H89.0047H89.0001Z" fill="#272635"/>
<path d="M113.924 36.0096H112.669C109.881 35.9651 107.743 35.3916 106.245 34.2939C104.747 33.1961 104 31.5842 104 29.458C104 27.3318 104.737 25.789 106.211 24.7358C107.685 23.6826 109.857 23.1387 112.732 23.109H113.919C116.838 23.109 119.083 23.6381 120.649 24.6913C122.22 25.7445 123 27.3367 123 29.458C123 31.5792 122.215 33.2604 120.649 34.3581C119.078 35.4559 116.833 36.0096 113.919 36.0096H113.924ZM113.726 32.5088C114.884 32.5088 115.796 32.4099 116.465 32.2072C117.134 32.0045 117.609 31.6781 117.895 31.2331C118.181 30.7831 118.322 30.1947 118.322 29.4629C118.322 28.7311 118.181 28.202 117.905 27.7916C117.623 27.3812 117.153 27.0796 116.484 26.8966C115.815 26.7087 114.894 26.6148 113.726 26.6148H112.998C111.912 26.6148 111.054 26.7137 110.424 26.9164C109.794 27.1192 109.348 27.4257 109.091 27.8361C108.834 28.2465 108.708 28.7904 108.708 29.4629C108.708 30.1799 108.834 30.7584 109.091 31.2034C109.348 31.6435 109.789 31.9699 110.409 32.1775C111.035 32.3852 111.888 32.499 112.974 32.5138H113.721L113.726 32.5088ZM111.35 40V19H115.66V40H111.35Z" fill="#272635"/>
<path d="M125 40V23.2294H129.446V24.9055L129.469 29.4299L129.674 33.9542V39.995H125.005L125 40ZM132.543 35.8348C131.564 35.8348 130.758 35.6053 130.115 35.1464C129.473 34.6875 129.004 33.9841 128.699 33.0414C128.394 32.0986 128.243 30.8964 128.243 29.4299C128.243 27.9633 128.384 26.7163 128.667 25.7735C128.949 24.8307 129.409 24.1323 130.042 23.6784C130.676 23.2245 131.509 23 132.543 23C133.577 23 134.443 23.2594 135.272 23.7831C136.096 24.3019 136.761 25.0452 137.258 26.0029C137.754 26.9607 138 28.103 138 29.4299C138 30.7567 137.754 31.899 137.258 32.8568C136.761 33.8145 136.101 34.5528 135.272 35.0616C134.447 35.5754 133.536 35.8298 132.543 35.8298V35.8348ZM131.427 31.8492C131.773 31.8492 132.083 31.7594 132.356 31.5798C132.634 31.4002 132.853 31.1259 133.017 30.7667C133.181 30.4026 133.263 29.9586 133.263 29.4299C133.263 28.9011 133.181 28.4322 133.017 28.0731C132.853 27.7089 132.63 27.4395 132.356 27.26C132.079 27.0804 131.769 26.9906 131.427 26.9906C131.086 26.9906 130.771 27.0804 130.498 27.26C130.22 27.4395 130.001 27.7139 129.837 28.0731C129.674 28.4372 129.592 28.8861 129.592 29.4299C129.592 29.9736 129.674 30.4026 129.837 30.7667C130.001 31.1309 130.225 31.4002 130.498 31.5798C130.771 31.7594 131.086 31.8492 131.427 31.8492Z" fill="#272635"/>
<path d="M145.998 36C144.634 36 143.426 35.7221 142.378 35.1613C141.329 34.6055 140.504 33.8375 139.903 32.8574C139.301 31.8772 139 30.7555 139 29.4874C139 28.2192 139.301 27.0976 139.903 26.1174C140.504 25.1372 141.329 24.3743 142.378 23.8236C143.426 23.2728 144.634 23 145.998 23C147.361 23 148.574 23.2728 149.632 23.8236C150.69 24.3743 151.515 25.1372 152.107 26.1174C152.699 27.0976 153 28.2192 153 29.4874C153 30.7555 152.704 31.8772 152.107 32.8574C151.515 33.8375 150.685 34.6055 149.632 35.1613C148.574 35.717 147.366 36 145.998 36ZM145.998 31.9631C146.366 31.9631 146.696 31.8721 146.988 31.6902C147.279 31.5083 147.517 31.2305 147.691 30.8515C147.866 30.4777 147.953 30.0229 147.953 29.4874C147.953 28.9518 147.866 28.4819 147.691 28.1232C147.517 27.7645 147.279 27.4917 146.988 27.3098C146.692 27.1279 146.362 27.0369 145.998 27.0369C145.634 27.0369 145.299 27.1279 145.008 27.3098C144.712 27.4917 144.479 27.7645 144.304 28.1232C144.129 28.4819 144.042 28.9367 144.042 29.4874C144.042 30.0381 144.129 30.4777 144.304 30.8515C144.479 31.2254 144.717 31.5033 145.008 31.6902C145.304 31.8721 145.634 31.9631 145.998 31.9631Z" fill="#272635"/>
<path d="M156 36V23H162.083C163.537 23 164.664 23.2986 165.472 23.8904C166.275 24.4823 166.681 25.3203 166.681 26.3993C166.681 27.4782 166.31 28.2796 165.572 28.9082C164.834 29.5367 163.834 29.8457 162.581 29.8457L162.917 28.751C164.249 28.751 165.266 29.0443 165.961 29.631C166.655 30.2176 167 31.0713 167 32.1974C167 33.3235 166.62 34.2768 165.86 34.9682C165.101 35.6596 163.948 36 162.402 36H156ZM159.921 28.1329H161.686C162.031 28.1329 162.275 28.0544 162.428 27.8973C162.581 27.7401 162.655 27.5097 162.655 27.2059C162.655 26.8864 162.581 26.6612 162.428 26.5302C162.275 26.394 162.026 26.326 161.686 26.326H159.921V28.1329ZM159.921 32.6741H162C162.332 32.6741 162.577 32.585 162.734 32.4122C162.891 32.2393 162.97 31.9984 162.97 31.6998C162.97 31.3856 162.891 31.1499 162.734 30.998C162.577 30.8461 162.332 30.7728 162 30.7728H159.921V32.6741Z" fill="#272635"/>
<path d="M174.998 36C173.634 36 172.426 35.7221 171.378 35.1613C170.329 34.6055 169.504 33.8375 168.903 32.8574C168.301 31.8772 168 30.7555 168 29.4874C168 28.2192 168.301 27.0976 168.903 26.1174C169.504 25.1372 170.329 24.3743 171.378 23.8236C172.426 23.2728 173.634 23 174.998 23C176.361 23 177.574 23.2728 178.632 23.8236C179.69 24.3743 180.515 25.1372 181.107 26.1174C181.699 27.0976 182 28.2192 182 29.4874C182 30.7555 181.704 31.8772 181.107 32.8574C180.515 33.8375 179.685 34.6055 178.632 35.1613C177.574 35.717 176.366 36 174.998 36ZM174.998 31.9631C175.366 31.9631 175.696 31.8721 175.988 31.6902C176.279 31.5083 176.517 31.2305 176.691 30.8515C176.866 30.4777 176.953 30.0229 176.953 29.4874C176.953 28.9518 176.866 28.4819 176.691 28.1232C176.517 27.7645 176.279 27.4917 175.988 27.3098C175.692 27.1279 175.362 27.0369 174.998 27.0369C174.634 27.0369 174.299 27.1279 174.008 27.3098C173.712 27.4917 173.479 27.7645 173.304 28.1232C173.129 28.4819 173.042 28.9367 173.042 29.4874C173.042 30.0381 173.129 30.4777 173.304 30.8515C173.479 31.2254 173.717 31.5033 174.008 31.6902C174.304 31.8721 174.634 31.9631 174.998 31.9631Z" fill="#2EC4B6"/>
<path d="M183 36V23H195V27.1849H187.421L188.649 26.0431V36H183Z" fill="#FF8600"/>
<path d="M201.498 36C200.232 36 199.11 35.7221 198.136 35.1613C197.163 34.6055 196.397 33.8375 195.838 32.8574C195.279 31.8772 195 30.7555 195 29.4874C195 28.2192 195.279 27.0976 195.838 26.1174C196.397 25.1372 197.163 24.3743 198.136 23.8236C199.11 23.2728 200.232 23 201.498 23C202.764 23 203.89 23.2728 204.873 23.8236C205.855 24.3743 206.621 25.1372 207.171 26.1174C207.721 27.0976 208 28.2192 208 29.4874C208 30.7555 207.725 31.8772 207.171 32.8574C206.621 33.8375 205.851 34.6055 204.873 35.1613C203.89 35.717 202.768 36 201.498 36ZM201.498 31.9631C201.84 31.9631 202.147 31.8721 202.417 31.6902C202.687 31.5083 202.908 31.2305 203.07 30.8515C203.233 30.4777 203.314 30.0229 203.314 29.4874C203.314 28.9518 203.233 28.4819 203.07 28.1232C202.908 27.7645 202.687 27.4917 202.417 27.3098C202.142 27.1279 201.836 27.0369 201.498 27.0369C201.16 27.0369 200.849 27.1279 200.579 27.3098C200.304 27.4917 200.087 27.7645 199.925 28.1232C199.763 28.4819 199.682 28.9367 199.682 29.4874C199.682 30.0381 199.763 30.4777 199.925 30.8515C200.087 31.2254 200.308 31.5033 200.579 31.6902C200.853 31.8721 201.16 31.9631 201.498 31.9631Z" fill="#464ED6"/>
<path d="M75.5868 57V47.809L76.6373 48.863H72.0001V45H84.0001V48.863H79.3628L80.4133 47.809V57H75.5821H75.5868Z" fill="#272635"/>
<path d="M86.0001 57V45H92.6361C94.2224 45 95.4514 45.2756 96.3327 45.8219C97.2093 46.3683 97.6523 47.1418 97.6523 48.1378C97.6523 49.1338 97.2474 49.8735 96.4424 50.4537C95.6373 51.0339 94.5463 51.3191 93.1791 51.3191L93.5459 50.3086C94.9989 50.3086 96.1089 50.5794 96.8663 51.1209C97.6238 51.6624 98.0001 52.4504 98.0001 53.4899C98.0001 54.5294 97.5856 55.4094 96.7567 56.0476C95.9278 56.6858 94.6702 57 92.9838 57H86.0001ZM90.278 49.7381H92.2026C92.5789 49.7381 92.8457 49.6656 93.0124 49.5206C93.1791 49.3755 93.2601 49.1628 93.2601 48.8824C93.2601 48.5874 93.1791 48.3795 93.0124 48.2587C92.8457 48.133 92.5741 48.0701 92.2026 48.0701H90.278V49.7381ZM90.278 53.9299H92.5455C92.9076 53.9299 93.1744 53.8477 93.3459 53.6882C93.5174 53.5286 93.6031 53.3062 93.6031 53.0306C93.6031 52.7405 93.5174 52.523 93.3459 52.3828C93.1744 52.2426 92.9076 52.1749 92.5455 52.1749H90.278V53.9299Z" fill="#272635"/>
<path d="M105.497 58C104.036 58 102.742 57.7007 101.619 57.0968C100.496 56.4982 99.6119 55.6712 98.9671 54.6156C98.3224 53.56 98.0001 52.3521 98.0001 50.9864C98.0001 49.6207 98.3224 48.4128 98.9671 47.3572C99.6119 46.3016 100.496 45.48 101.619 44.8869C102.742 44.2938 104.036 44 105.497 44C106.958 44 108.258 44.2938 109.392 44.8869C110.525 45.48 111.409 46.3016 112.043 47.3572C112.678 48.4128 113 49.6207 113 50.9864C113 52.3521 112.683 53.56 112.043 54.6156C111.404 55.6712 110.52 56.4982 109.392 57.0968C108.258 57.6953 106.964 58 105.497 58ZM105.497 53.6526C105.893 53.6526 106.246 53.5546 106.558 53.3587C106.87 53.1628 107.125 52.8636 107.312 52.4555C107.499 52.0529 107.593 51.5632 107.593 50.9864C107.593 50.4096 107.499 49.9036 107.312 49.5173C107.125 49.131 106.87 48.8372 106.558 48.6413C106.241 48.4454 105.887 48.3475 105.497 48.3475C105.107 48.3475 104.749 48.4454 104.437 48.6413C104.12 48.8372 103.87 49.131 103.683 49.5173C103.496 49.9036 103.402 50.3933 103.402 50.9864C103.402 51.5795 103.496 52.0529 103.683 52.4555C103.87 52.8581 104.125 53.1574 104.437 53.3587C104.754 53.5546 105.107 53.6526 105.497 53.6526Z" fill="#272635"/>
<path d="M115 62V44.243H119.446V46.0176L119.469 50.8081L119.674 55.5986V61.9947H115.005L115 62ZM122.543 57.5898C121.564 57.5898 120.758 57.3468 120.115 56.8609C119.473 56.375 119.004 55.6303 118.699 54.632C118.394 53.6338 118.243 52.3609 118.243 50.8081C118.243 49.2553 118.384 47.9349 118.667 46.9366C118.949 45.9384 119.409 45.199 120.042 44.7183C120.676 44.2377 121.509 44 122.543 44C123.577 44 124.443 44.2747 125.272 44.8292C126.096 45.3785 126.761 46.1655 127.258 47.1796C127.754 48.1937 128 49.4032 128 50.8081C128 52.213 127.754 53.4225 127.258 54.4366C126.761 55.4507 126.101 56.2324 125.272 56.7711C124.447 57.3152 123.536 57.5845 122.543 57.5845V57.5898ZM121.427 53.3697C121.773 53.3697 122.083 53.2746 122.356 53.0845C122.634 52.8944 122.853 52.6039 123.017 52.2236C123.181 51.838 123.263 51.368 123.263 50.8081C123.263 50.2482 123.181 49.7518 123.017 49.3715C122.853 48.9859 122.63 48.7007 122.356 48.5106C122.079 48.3204 121.769 48.2253 121.427 48.2253C121.086 48.2253 120.771 48.3204 120.498 48.5106C120.22 48.7007 120.001 48.9912 119.837 49.3715C119.674 49.7571 119.592 50.2324 119.592 50.8081C119.592 51.3838 119.674 51.838 119.837 52.2236C120.001 52.6092 120.225 52.8944 120.498 53.0845C120.771 53.2746 121.086 53.3697 121.427 53.3697Z" fill="#272635"/>
<path d="M137.339 52.7454C137.011 52.9774 136.596 53.1708 136.087 53.3256C135.578 53.4803 134.952 53.5576 134.214 53.5576C132.468 53.5576 131.162 53.1757 130.296 52.4069C129.43 51.6382 129 50.3908 129 48.6648V45H133.994V48.336C133.994 48.9501 134.111 49.3707 134.351 49.5979C134.585 49.8251 134.942 49.9364 135.417 49.9364C135.833 49.9364 136.199 49.888 136.517 49.7962C136.835 49.6995 137.104 49.5737 137.329 49.4142L137.354 52.7502L137.339 52.7454ZM137.006 57V45H142V57H137.006Z" fill="#272635"/>
<path d="M151.128 58C149.488 58 148.065 57.6953 146.842 57.0859C145.625 56.4765 144.678 55.644 144.007 54.5775C143.336 53.5165 143 52.3195 143 50.9864C143 49.6533 143.33 48.4128 143.996 47.3572C144.661 46.3016 145.565 45.48 146.723 44.8869C147.876 44.2938 149.174 44 150.614 44C151.939 44 153.162 44.2612 154.283 44.789C155.403 45.3168 156.306 46.0948 156.983 47.1341C157.659 48.1733 158 49.4574 158 50.9864C158 51.1823 157.989 51.3999 157.973 51.6393C157.957 51.8787 157.941 52.0964 157.924 52.2923H147.589V49.5989H154.981L152.892 50.3172C152.892 49.7894 152.8 49.3432 152.61 48.9732C152.421 48.6032 152.167 48.3148 151.837 48.1081C151.507 47.9013 151.117 47.7979 150.657 47.7979C150.197 47.7979 149.802 47.9013 149.467 48.1081C149.131 48.3148 148.871 48.6032 148.693 48.9732C148.514 49.3432 148.422 49.7948 148.422 50.3172V51.1551C148.422 51.7318 148.536 52.227 148.768 52.6351C148.996 53.0486 149.326 53.3533 149.753 53.56C150.181 53.7668 150.695 53.8702 151.301 53.8702C151.907 53.8702 152.432 53.7886 152.838 53.6253C153.238 53.4621 153.66 53.2118 154.104 52.8853L156.999 55.8236C156.344 56.5309 155.538 57.0696 154.58 57.4396C153.622 57.8095 152.475 57.9946 151.133 57.9946L151.128 58Z" fill="#272635"/>
<path d="M165.093 58C163.719 58 162.495 57.7061 161.425 57.1128C160.356 56.5194 159.519 55.6921 158.91 54.6306C158.3 53.5692 158 52.3554 158 50.9891C158 49.6229 158.305 48.4145 158.91 47.3585C159.514 46.3025 160.356 45.4806 161.425 44.8872C162.495 44.2939 163.714 44 165.093 44C166.554 44 167.807 44.3538 168.847 45.0614C169.887 45.7691 170.603 46.7489 171 48.0008L167.159 50.1236C166.912 49.4977 166.607 49.0459 166.249 48.7628C165.891 48.4852 165.499 48.3437 165.073 48.3437C164.706 48.3437 164.367 48.4417 164.053 48.6376C163.738 48.8336 163.491 49.1275 163.308 49.514C163.124 49.9005 163.032 50.3904 163.032 50.9837C163.032 51.577 163.124 52.0723 163.308 52.4642C163.491 52.8616 163.738 53.1555 164.053 53.3515C164.367 53.5474 164.706 53.6454 165.073 53.6454C165.499 53.6454 165.891 53.5039 166.249 53.2263C166.607 52.9487 166.912 52.4914 167.159 51.8655L171 53.9883C170.603 55.2403 169.887 56.22 168.847 56.9277C167.807 57.6353 166.559 57.9891 165.093 57.9891V58Z" fill="#272635"/>
<path d="M175.587 57V47.809L176.637 48.863H172V45H184V48.863H179.363L180.413 47.809V57H175.582H175.587Z" fill="#272635"/>
<path d="M185 57V45H192.189C193.908 45 195.239 45.2756 196.194 45.8219C197.143 46.3683 197.623 47.1418 197.623 48.1378C197.623 49.1338 197.185 49.8735 196.312 50.4537C195.44 51.0339 194.259 51.3191 192.777 51.3191L193.175 50.3086C194.749 50.3086 195.951 50.5794 196.772 51.1209C197.592 51.6624 198 52.4504 198 53.4899C198 54.5294 197.551 55.4094 196.653 56.0476C195.755 56.6858 194.393 57 192.566 57H185ZM189.634 49.7381H191.719C192.127 49.7381 192.416 49.6656 192.597 49.5206C192.777 49.3755 192.865 49.1628 192.865 48.8824C192.865 48.5874 192.777 48.3795 192.597 48.2587C192.416 48.133 192.122 48.0701 191.719 48.0701H189.634V49.7381ZM189.634 53.9299H192.091C192.483 53.9299 192.772 53.8477 192.958 53.6882C193.144 53.5286 193.237 53.3062 193.237 53.0306C193.237 52.7405 193.144 52.523 192.958 52.3828C192.772 52.2426 192.483 52.1749 192.091 52.1749H189.634V53.9299Z" fill="#272635"/>
<path d="M203.29 57.9891C202.345 57.9891 201.558 57.7988 200.924 57.4237C200.29 57.0431 199.811 56.5375 199.485 55.9068C199.158 55.2761 199 54.5693 199 53.7973C199 52.9274 199.191 52.188 199.573 51.579C199.955 50.9701 200.533 50.508 201.315 50.1981C202.098 49.8882 203.086 49.7305 204.283 49.7305H206.691V52.4218H205.042C204.534 52.4218 204.166 52.5142 203.933 52.7045C203.7 52.8948 203.584 53.1775 203.584 53.5581C203.584 53.8734 203.686 54.1289 203.891 54.3355C204.096 54.5421 204.376 54.6454 204.725 54.6454C205.051 54.6454 205.349 54.5421 205.624 54.3355C205.899 54.1289 206.099 53.8027 206.225 53.3623L206.84 55.0152C206.658 56.021 206.267 56.7658 205.676 57.2606C205.084 57.7553 204.287 58 203.286 58L203.29 57.9891ZM206.565 57.7445V55.3522L206.225 54.7107V50.1709C206.225 49.513 206.053 49.0128 205.708 48.6649C205.363 48.3169 204.804 48.1484 204.026 48.1484C203.505 48.1484 202.978 48.2408 202.443 48.4311C201.907 48.6214 201.45 48.8769 201.068 49.2086L199.545 45.5332C200.221 45.0385 201.031 44.6633 201.977 44.3969C202.922 44.1359 203.845 44 204.744 44C206.733 44 208.27 44.5165 209.36 45.555C210.45 46.5934 211 48.2354 211 50.4862V57.739H206.561L206.565 57.7445Z" fill="#272635"/>
</svg>
