<svg width="224" height="40" viewBox="0 0 224 40" fill="none" xmlns="http://www.w3.org/2000/svg">
<g clip-path="url(#clip0_167_42)">
<path d="M6.70441 19.8447C6.70409 16.9407 7.66743 14.1181 9.44448 11.8162C11.2215 9.51435 13.7126 7.86237 16.5299 7.11743C19.3471 6.3725 22.3326 6.5764 25.0215 7.6974C27.7104 8.81841 29.9518 10.7936 31.397 13.3156H38.7331C37.6325 10.1694 35.7547 7.34985 33.2726 5.1169C30.7906 2.88396 27.7843 1.30947 24.5308 0.538571C21.2773 -0.232326 17.8814 -0.174818 14.6561 0.705795C11.4308 1.58641 8.47987 3.26178 6.07544 5.57748C3.671 7.89317 1.8904 10.7746 0.897772 13.9563C-0.0948516 17.1379 -0.26755 20.5173 0.395599 23.7829C1.05875 27.0486 2.5364 30.0953 4.69234 32.6423C6.84827 35.1893 9.61311 37.1546 12.732 38.3571V30.8964C10.8804 29.7027 9.35857 28.0658 8.30563 26.1352C7.25268 24.2046 6.70217 22.0419 6.70441 19.8447ZM39.593 16.7402C39.4615 16.709 39.305 16.6716 39.1234 16.6363C37.3761 16.2752 35.5963 16.0927 33.8117 16.0915C33.4173 16.0915 33.0082 16.0915 32.5929 16.1206C32.044 16.1476 31.4763 16.1954 30.8981 16.2682C27.6756 16.6675 24.113 17.834 21.1263 20.5891C21.0971 20.612 21.07 20.639 21.0449 20.6619C18.075 23.4378 16.5326 27.3823 16.5326 31.4121V39.9748H23.1132C23.1132 39.8084 23.1132 39.6255 23.1278 39.4258C23.1424 38.7209 23.1571 37.8102 23.1654 36.7518C23.1654 35.8307 23.1654 35.3628 23.1654 34.8596C23.1654 33.9093 23.1445 33.1961 23.1362 32.6077C23.1237 31.3601 23.1362 30.7363 23.3324 29.8567C23.5536 28.8524 24.067 26.5298 25.9413 24.8018C28.0555 22.8618 30.8293 22.6664 32.4322 22.7495C32.5616 22.7495 32.6826 22.762 32.7974 22.7703C33.2148 22.8057 33.5112 22.8514 33.651 22.8743C33.7473 24.1687 33.7194 25.4694 33.5675 26.7585C33.2879 29.1248 33.1021 30.6905 32.0231 31.882C30.9002 33.1192 29.241 33.4831 27.9386 33.5579C27.3117 33.5916 26.683 33.5686 26.0602 33.4893C26.0602 35.2332 26.0602 36.9771 26.0602 38.7209V39.9685C29.1909 40.1307 31.6662 39.64 33.0186 39.0869C33.8239 38.7488 34.5931 38.3308 35.3144 37.8393C36.1515 37.2505 36.9042 36.551 37.5518 35.76C39.2215 33.7347 40 31.1417 40 28.5363V16.84C39.9353 16.8255 39.7955 16.7881 39.593 16.7402Z" fill="white"/>
<path d="M52.0479 9.95188H66.5047V12.2792H54.7585V17.7553H60.7274C63.0091 17.7553 64.7432 18.2299 65.9297 19.1791C67.1162 20.1282 67.7094 21.4973 67.7094 23.2861C67.7094 25.1662 67.0614 26.6083 65.7654 27.6122C64.4877 28.6161 62.6532 29.1181 60.262 29.1181H52.0479V9.95188ZM60.1524 26.9551C61.7222 26.9551 62.9179 26.6539 63.7393 26.0515C64.5607 25.4492 64.9714 24.5639 64.9714 23.3956C64.9714 21.0774 63.3651 19.9183 60.1524 19.9183H54.7585V26.9551H60.1524Z" fill="white"/>
<path d="M72.0751 9.95188H74.7857V24.7373L86.1212 9.95188H88.6402V29.1181H85.9569V14.3601L74.5941 29.1181H72.0751V9.95188Z" fill="white"/>
<path d="M103.241 29.3372C101.306 29.3372 99.5625 28.9173 98.0109 28.0777C96.4593 27.2198 95.2364 26.0424 94.3419 24.5456C93.4658 23.0488 93.0277 21.3786 93.0277 19.535C93.0277 17.6914 93.4658 16.0212 94.3419 14.5244C95.2364 13.0276 96.4593 11.8594 98.0109 11.0197C99.5625 10.1618 101.306 9.73284 103.241 9.73284C105.157 9.73284 106.891 10.1618 108.443 11.0197C109.994 11.8594 111.208 13.0276 112.084 14.5244C112.961 16.0029 113.399 17.6731 113.399 19.535C113.399 21.3969 112.961 23.0762 112.084 24.573C111.208 26.0515 109.994 27.2198 108.443 28.0777C106.891 28.9173 105.157 29.3372 103.241 29.3372ZM103.241 26.9003C104.646 26.9003 105.906 26.5809 107.019 25.942C108.151 25.3031 109.036 24.427 109.675 23.3135C110.332 22.1818 110.661 20.9223 110.661 19.535C110.661 18.1477 110.332 16.8974 109.675 15.7839C109.036 14.6522 108.151 13.7669 107.019 13.128C105.906 12.4891 104.646 12.1697 103.241 12.1697C101.835 12.1697 100.557 12.4891 99.4073 13.128C98.2756 13.7669 97.3812 14.6522 96.724 15.7839C96.0852 16.8974 95.7657 18.1477 95.7657 19.535C95.7657 20.9223 96.0852 22.1818 96.724 23.3135C97.3812 24.427 98.2756 25.3031 99.4073 25.942C100.557 26.5809 101.835 26.9003 103.241 26.9003Z" fill="white"/>
<path d="M136.882 26.736V33.4716H134.335V29.1181H117.825V9.95188H120.536V26.736H131.214V9.95188H133.924V26.736H136.882Z" fill="white"/>
<path d="M140.526 9.95188H143.237V24.7373L154.572 9.95188H157.091V29.1181H154.408V14.3601L143.045 29.1181H140.526V9.95188Z" fill="white"/>
<path d="M184.204 19.5076C184.204 22.0449 183.319 24.0345 181.548 25.4765C179.778 26.9186 177.277 27.6943 174.046 27.8039V29.83H171.5V27.8039C168.269 27.6761 165.759 26.8912 163.97 25.4492C162.2 24.0071 161.314 22.0266 161.314 19.5076C161.314 16.9704 162.2 14.9807 163.97 13.5387C165.759 12.0967 168.269 11.3118 171.5 11.184V9.23999H174.046V11.184C177.259 11.3118 179.75 12.1058 181.521 13.5661C183.31 15.0081 184.204 16.9886 184.204 19.5076ZM174.046 25.6682C176.492 25.5222 178.354 24.9289 179.632 23.8885C180.928 22.8298 181.576 21.3604 181.576 19.4802C181.576 17.6366 180.919 16.1946 179.604 15.1541C178.308 14.0954 176.456 13.4931 174.046 13.347V25.6682ZM163.97 19.5076C163.97 21.3695 164.618 22.8298 165.914 23.8885C167.228 24.9289 169.09 25.5222 171.5 25.6682V13.347C169.054 13.4931 167.183 14.0863 165.887 15.1268C164.609 16.1672 163.97 17.6275 163.97 19.5076Z" fill="white"/>
<path d="M195.89 9.95188C198.372 9.95188 200.325 10.5451 201.749 11.7316C203.173 12.9181 203.885 14.5518 203.885 16.6327C203.885 18.7136 203.173 20.3473 201.749 21.5338C200.325 22.7202 198.372 23.3135 195.89 23.3135H191.153V29.1181H188.415V9.95188H195.89ZM195.808 20.9314C197.542 20.9314 198.865 20.5663 199.778 19.8362C200.69 19.0878 201.147 18.02 201.147 16.6327C201.147 15.2454 200.69 14.1867 199.778 13.4566C198.865 12.7082 197.542 12.334 195.808 12.334H191.153V20.9314H195.808Z" fill="white"/>
<path d="M219.189 24.3266H209.003L206.895 29.1181H204.075L212.754 9.95188H215.465L224.172 29.1181H221.297L219.189 24.3266ZM218.231 22.1361L214.096 12.7447L209.962 22.1361H218.231Z" fill="white"/>
</g>
<defs>
<clipPath id="clip0_167_42">
<rect width="224" height="40" fill="white"/>
</clipPath>
</defs>
</svg>
