<svg width="40" height="40" viewBox="0 0 40 40" fill="none" xmlns="http://www.w3.org/2000/svg">
<path d="M6.70441 19.8447C6.70409 16.9407 7.66743 14.1181 9.44448 11.8162C11.2215 9.51435 13.7126 7.86237 16.5299 7.11743C19.3471 6.3725 22.3326 6.5764 25.0215 7.6974C27.7104 8.81841 29.9518 10.7936 31.397 13.3156H38.7331C37.6325 10.1694 35.7547 7.34985 33.2726 5.1169C30.7906 2.88396 27.7843 1.30947 24.5308 0.538571C21.2773 -0.232326 17.8814 -0.174818 14.6561 0.705795C11.4308 1.58641 8.47987 3.26178 6.07544 5.57748C3.671 7.89317 1.8904 10.7746 0.897772 13.9563C-0.0948516 17.1379 -0.26755 20.5173 0.395599 23.7829C1.05875 27.0486 2.5364 30.0953 4.69234 32.6423C6.84827 35.1893 9.61311 37.1546 12.732 38.3571V30.8964C10.8804 29.7027 9.35857 28.0658 8.30563 26.1352C7.25268 24.2046 6.70217 22.0419 6.70441 19.8447ZM39.593 16.7402C39.4615 16.709 39.305 16.6716 39.1234 16.6363C37.3761 16.2752 35.5963 16.0927 33.8117 16.0915C33.4173 16.0915 33.0082 16.0915 32.5929 16.1206C32.044 16.1476 31.4763 16.1954 30.8981 16.2682C27.6756 16.6675 24.113 17.834 21.1263 20.5891C21.0971 20.612 21.07 20.639 21.0449 20.6619C18.075 23.4378 16.5326 27.3823 16.5326 31.4121V39.9748H23.1132C23.1132 39.8084 23.1132 39.6255 23.1278 39.4258C23.1424 38.7209 23.1571 37.8102 23.1654 36.7518C23.1654 35.8307 23.1654 35.3628 23.1654 34.8596C23.1654 33.9093 23.1445 33.1961 23.1362 32.6077C23.1237 31.3601 23.1362 30.7363 23.3324 29.8567C23.5536 28.8524 24.067 26.5298 25.9413 24.8018C28.0555 22.8618 30.8293 22.6664 32.4322 22.7495C32.5616 22.7495 32.6826 22.762 32.7974 22.7703C33.2148 22.8057 33.5112 22.8514 33.651 22.8743C33.7473 24.1687 33.7194 25.4694 33.5675 26.7585C33.2879 29.1248 33.1021 30.6905 32.0231 31.882C30.9002 33.1192 29.241 33.4831 27.9386 33.5579C27.3117 33.5916 26.683 33.5686 26.0602 33.4893C26.0602 35.2332 26.0602 36.9771 26.0602 38.7209V39.9685C29.1909 40.1307 31.6662 39.64 33.0186 39.0869C33.8239 38.7488 34.5931 38.3308 35.3144 37.8393C36.1515 37.2505 36.9042 36.551 37.5518 35.76C39.2215 33.7347 40 31.1417 40 28.5363V16.84C39.9353 16.8255 39.7955 16.7881 39.593 16.7402Z" fill="white"/>
</svg>