<svg width="48" height="49" viewBox="0 0 48 49" fill="none" xmlns="http://www.w3.org/2000/svg">
<path fill-rule="evenodd" clip-rule="evenodd" d="M48 24.7339C48 37.9887 37.2548 48.7339 24 48.7339C10.7452 48.7339 0 37.9887 0 24.7339C0 11.4791 10.7452 0.733887 24 0.733887C37.2548 0.733887 48 11.4791 48 24.7339ZM24.8601 18.4517C22.5257 19.4227 17.8603 21.4323 10.8638 24.4805C9.72766 24.9323 9.13251 25.3743 9.07834 25.8065C8.98677 26.5369 9.90142 26.8245 11.1469 27.2161C11.3164 27.2694 11.4919 27.3246 11.6719 27.3831C12.8973 27.7814 14.5457 28.2474 15.4026 28.2659C16.1799 28.2827 17.0475 27.9623 18.0053 27.3046C24.5423 22.8919 27.9168 20.6615 28.1286 20.6134C28.2781 20.5795 28.4852 20.5368 28.6255 20.6616C28.7659 20.7863 28.7521 21.0225 28.7372 21.0859C28.6466 21.4722 25.0562 24.8101 23.1982 26.5374C22.619 27.0759 22.2081 27.4579 22.1242 27.5452C21.936 27.7406 21.7443 27.9254 21.56 28.1031C20.4215 29.2005 19.5678 30.0235 21.6072 31.3675C22.5873 32.0133 23.3715 32.5474 24.1539 33.0802C25.0084 33.6621 25.8606 34.2424 26.9632 34.9652C27.2442 35.1494 27.5125 35.3406 27.7738 35.5269C28.7681 36.2358 29.6615 36.8727 30.7652 36.7711C31.4065 36.7121 32.0689 36.1091 32.4053 34.3106C33.2004 30.0602 34.7633 20.8508 35.1244 17.0558C35.1561 16.7233 35.1163 16.2978 35.0843 16.111C35.0523 15.9242 34.9855 15.6581 34.7427 15.4611C34.4552 15.2278 34.0113 15.1786 33.8127 15.1821C32.91 15.198 31.5251 15.6795 24.8601 18.4517Z" fill="#1E1E1E"/>
</svg>
